{
	"asset":{
		"generator":"Khronos glTF Blender I/O v4.5.47",
		"version":"2.0"
	},
	"scene":0,
	"scenes":[
		{
			"name":"Scene",
			"nodes":[
				0,
				1
			]
		}
	],
	"nodes":[
		{
			"mesh":0,
			"name":"Roundcube.001",
			"scale":[
				1.1070529222488403,
				1.1070529222488403,
				1.1070529222488403
			]
		},
		{
			"mesh":1,
			"name":"Sphere"
		}
	],
	"materials":[
		{
			"doubleSided":true,
			"name":"Material.002",
			"pbrMetallicRoughness":{
				"baseColorTexture":{
					"index":0
				},
				"metallicFactor":0.30000001192092896
			}
		},
		{
			"doubleSided":true,
			"name":"Material.001",
			"pbrMetallicRoughness":{
				"baseColorTexture":{
					"index":1
				},
				"metallicFactor":0,
				"roughnessFactor":0.5
			}
		}
	],
	"meshes":[
		{
			"name":"Roundcube.001",
			"primitives":[
				{
					"attributes":{
						"POSITION":0,
						"NORMAL":1,
						"TEXCOORD_0":2
					},
					"indices":3,
					"material":0
				}
			]
		},
		{
			"name":"Sphere",
			"primitives":[
				{
					"attributes":{
						"POSITION":4,
						"NORMAL":5,
						"TEXCOORD_0":6
					},
					"indices":7,
					"material":1
				}
			]
		}
	],
	"textures":[
		{
			"sampler":0,
			"source":0
		},
		{
			"sampler":1,
			"source":1
		}
	],
	"images":[
		{
			"mimeType":"image/jpeg",
			"name":"dreamcast",
			"uri":"dreamcast.jpg"
		},
		{
			"mimeType":"image/png",
			"name":"tyra-chan",
			"uri":"tyra-chan.png"
		}
	],
	"accessors":[
		{
			"bufferView":0,
			"componentType":5126,
			"count":114,
			"max":[
				0.5,
				1.9049227237701416,
				0.6392784118652344
			],
			"min":[
				-0.5,
				1.3864625692367554,
				-0.48958349227905273
			],
			"type":"VEC3"
		},
		{
			"bufferView":1,
			"componentType":5126,
			"count":114,
			"type":"VEC3"
		},
		{
			"bufferView":2,
			"componentType":5126,
			"count":114,
			"type":"VEC2"
		},
		{
			"bufferView":3,
			"componentType":5123,
			"count":348,
			"type":"SCALAR"
		},
		{
			"bufferView":4,
			"componentType":5126,
			"count":593,
			"max":[
				0.49999985098838806,
				2.0000011920928955,
				0.5115313529968262
			],
			"min":[
				-0.4999995231628418,
				1.2367963790893555e-06,
				-0.4884682893753052
			],
			"type":"VEC3"
		},
		{
			"bufferView":5,
			"componentType":5126,
			"count":593,
			"type":"VEC3"
		},
		{
			"bufferView":6,
			"componentType":5126,
			"count":593,
			"type":"VEC2"
		},
		{
			"bufferView":7,
			"componentType":5123,
			"count":2880,
			"type":"SCALAR"
		}
	],
	"bufferViews":[
		{
			"buffer":0,
			"byteLength":1368,
			"byteOffset":0,
			"target":34962
		},
		{
			"buffer":0,
			"byteLength":1368,
			"byteOffset":1368,
			"target":34962
		},
		{
			"buffer":0,
			"byteLength":912,
			"byteOffset":2736,
			"target":34962
		},
		{
			"buffer":0,
			"byteLength":696,
			"byteOffset":3648,
			"target":34963
		},
		{
			"buffer":0,
			"byteLength":7116,
			"byteOffset":4344,
			"target":34962
		},
		{
			"buffer":0,
			"byteLength":7116,
			"byteOffset":11460,
			"target":34962
		},
		{
			"buffer":0,
			"byteLength":4744,
			"byteOffset":18576,
			"target":34962
		},
		{
			"buffer":0,
			"byteLength":5760,
			"byteOffset":23320,
			"target":34963
		}
	],
	"samplers":[
		{
			"magFilter":9729,
			"minFilter":9987
		},
		{
			"magFilter":9729,
			"minFilter":9987,
			"wrapS":33071,
			"wrapT":33071
		}
	],
	"buffers":[
		{
			"byteLength":29080,
			"uri":"tyra.bin"
		}
	]
}
